<svg width="48" height="51" viewBox="0 0 48 51" fill="none" xmlns="http://www.w3.org/2000/svg">
<path d="M34.0467 29.2587C31.311 29.2587 29.0854 31.636 29.0854 34.5583C29.0854 37.4806 31.311 39.8579 34.0467 39.8579C36.7829 39.8579 39.0081 37.4806 39.0081 34.5583C39.0081 31.636 36.7825 29.2587 34.0467 29.2587ZM34.0467 37.2081C32.6787 37.2081 31.5661 36.0196 31.5661 34.5583C31.5661 33.097 32.6787 31.9085 34.0467 31.9085C35.4148 31.9085 36.5274 33.097 36.5274 34.5583C36.5274 36.0197 35.4148 37.2081 34.0467 37.2081Z" fill="black"/>
<path d="M17.0955 29.2587C14.3597 29.2587 12.1341 31.636 12.1341 34.5583C12.1341 37.4806 14.3597 39.8579 17.0955 39.8579C19.8312 39.8579 22.0568 37.4806 22.0568 34.5583C22.0568 31.636 19.8312 29.2587 17.0955 29.2587ZM17.0955 37.2081C15.7274 37.2081 14.6148 36.0196 14.6148 34.5583C14.6148 33.097 15.7274 31.9085 17.0955 31.9085C18.4632 31.9085 19.5762 33.097 19.5762 34.5583C19.5762 36.0197 18.4636 37.2081 17.0955 37.2081Z" fill="black"/>
<path d="M37.3878 14.0895C37.1769 13.6421 36.7482 13.3599 36.2793 13.3599H29.7469V16.0097H35.5144L38.8919 23.1853L41.1088 21.9947L37.3878 14.0895Z" fill="black"/>
<path d="M30.3257 33.2776H20.9405V35.9274H30.3257V33.2776Z" fill="black"/>
<path d="M13.3744 33.2776H9.07462C8.38951 33.2776 7.83432 33.8707 7.83432 34.6025C7.83432 35.3343 8.38959 35.9273 9.07462 35.9273H13.3745C14.0596 35.9273 14.6148 35.3342 14.6148 34.6025C14.6148 33.8706 14.0595 33.2776 13.3744 33.2776Z" fill="black"/>
<path d="M43.4195 25.1779L40.9798 21.8215C40.7454 21.4982 40.3837 21.3091 40.0004 21.3091H30.9872V12.0348C30.9872 11.303 30.432 10.71 29.7469 10.71H9.07462C8.38951 10.71 7.83432 11.3031 7.83432 12.0348C7.83432 12.7666 8.38959 13.3597 9.07462 13.3597H28.5066V22.634C28.5066 23.3658 29.0618 23.9589 29.7469 23.9589H39.393L41.1993 26.4444V33.2774H37.7677C37.0826 33.2774 36.5274 33.8705 36.5274 34.6023C36.5274 35.3341 37.0827 35.9271 37.7677 35.9271H42.4396C43.1247 35.9271 43.6799 35.334 43.68 34.6023V25.9905C43.68 25.6964 43.5882 25.4102 43.4195 25.1779Z" fill="black"/>
<path d="M13.2918 26.5647H7.58617C6.90106 26.5647 6.34587 27.1578 6.34587 27.8896C6.34587 28.6214 6.90114 29.2144 7.58617 29.2144H13.2917C13.9768 29.2144 14.532 28.6213 14.532 27.8896C14.5321 27.1578 13.9768 26.5647 13.2918 26.5647Z" fill="black"/>
<path d="M16.1445 21.3534H5.56031C4.87528 21.3534 4.32001 21.9465 4.32001 22.6783C4.32001 23.4102 4.87528 24.0032 5.56031 24.0032H16.1445C16.8296 24.0032 17.3848 23.4101 17.3848 22.6783C17.3848 21.9466 16.8296 21.3534 16.1445 21.3534Z" fill="black"/>
<path d="M18.1704 16.1421H7.58617C6.90106 16.1421 6.34587 16.7352 6.34587 17.467C6.34587 18.1988 6.90114 18.7918 7.58617 18.7918H18.1704C18.8555 18.7918 19.4107 18.1987 19.4107 17.467C19.4108 16.7352 18.8555 16.1421 18.1704 16.1421Z" fill="black"/>
</svg>
