<svg width="48" height="51" viewBox="0 0 48 51" fill="none" xmlns="http://www.w3.org/2000/svg">
<path d="M40 23.3103C40 21.3944 38.5957 19.8357 36.8696 19.8357H29.3199L30.419 16.5077C30.4226 16.4969 30.4259 16.4862 30.4292 16.4754C30.9589 14.7118 30.8256 12.8614 30.0436 11.1237C29.4535 9.81373 28.2675 9 26.9484 9H26.5817C25.6934 9 24.9421 9.77024 24.8711 10.7533C24.7469 12.4724 24.0826 14.1007 23.0006 15.3389L16.9544 22.1522H16.3478V20.9939C16.3478 20.3543 15.8806 19.8357 15.3043 19.8357H9.0435C8.46719 19.8357 8 20.3543 8 20.9939V41.8418C8 42.4814 8.46719 43 9.0435 43H15.3044C15.8806 43 16.3479 42.4814 16.3479 41.8418V40.6835H33.7392C35.4653 40.6835 36.8696 39.1248 36.8696 37.2089C36.8696 36.5898 36.7231 36.0081 36.4664 35.5042C37.3358 34.8862 37.9131 33.8046 37.9131 32.576C37.9131 31.9569 37.7666 31.3753 37.5099 30.8713C38.3793 30.2533 38.9566 29.1717 38.9566 27.9431C38.9566 27.3241 38.8101 26.7424 38.5534 26.2385C39.4227 25.6206 40 24.5389 40 23.3103ZM14.2609 23.3103V39.5253V40.6835H10.0869V22.1522H14.2609V23.3103ZM36.8696 24.4686H35.8261H33.7391C33.1629 24.4686 32.6956 24.9871 32.6956 25.6268C32.6956 26.2665 33.1628 26.785 33.7391 26.785H35.8261C36.4014 26.785 36.8696 27.3046 36.8696 27.9433C36.8696 28.5819 36.4014 29.1015 35.8261 29.1015H34.7826H32.6956C32.1194 29.1015 31.6521 29.6201 31.6521 30.2598C31.6521 30.8994 32.1193 31.418 32.6956 31.418H34.7826C35.3579 31.418 35.8261 31.9376 35.8261 32.5762C35.8261 33.2149 35.3579 33.7345 34.7826 33.7345H33.7391C33.6844 33.7345 33.6311 33.7406 33.5786 33.7495H31.5828C31.0066 33.7495 30.5393 34.2681 30.5393 34.9078C30.5393 35.5474 31.0065 36.066 31.5828 36.066H33.6698C33.7166 36.066 33.7623 36.0613 33.8074 36.0548C34.3509 36.0942 34.7826 36.5961 34.7826 37.2091C34.7826 37.8477 34.3144 38.3673 33.7391 38.3673H16.3478V24.4685H17.3913C17.6708 24.4685 17.9386 24.3441 18.1348 24.123L24.4902 16.9611C24.4919 16.9592 24.4937 16.9572 24.4953 16.9552C25.8365 15.4223 26.6888 13.4322 26.9173 11.3163H26.9484C27.4719 11.3163 27.9427 11.6394 28.1768 12.1591C28.7113 13.3469 28.8044 14.5472 28.4538 15.7274L26.8463 20.5953C26.7289 20.9505 26.7754 21.347 26.9706 21.6571C27.1658 21.9673 27.4851 22.1521 27.8261 22.1521H36.8696C37.4449 22.1521 37.9131 22.6717 37.9131 23.3103C37.9131 23.949 37.4449 24.4686 36.8696 24.4686Z" fill="black"/>
</svg>
