<svg width="48" height="51" viewBox="0 0 48 51" fill="none" xmlns="http://www.w3.org/2000/svg">
<g clip-path="url(#clip0)">
<path d="M23.5001 36.6819C17.3221 36.6819 12.3182 31.678 12.3182 25.5001C12.3182 23.6085 12.7935 21.838 13.6135 20.2726L10.8926 17.5516C9.44819 19.8625 8.59094 22.5741 8.59094 25.5001C8.59094 33.7373 15.2627 40.4092 23.5001 40.4092V46.0001L30.9546 38.5455L23.5001 31.091V36.6819Z" fill="black"/>
<path d="M23.5002 10.5909V5L16.0457 12.4545L23.5002 19.909V14.3181C29.6782 14.3181 34.6821 19.322 34.6821 25.5C34.6821 27.3915 34.2068 29.162 33.3868 30.7275L36.1077 33.4484C37.552 31.1375 38.4094 28.4259 38.4094 25.5C38.4093 17.2627 31.7375 10.5909 23.5002 10.5909Z" fill="black"/>
</g>
<defs>
<clipPath id="clip0">
<rect width="41" height="41" fill="white" transform="translate(3 5)"/>
</clipPath>
</defs>
</svg>
