<svg width="48" height="51" viewBox="0 0 48 51" fill="none" xmlns="http://www.w3.org/2000/svg">
<g clip-path="url(#clip0)">
<path d="M19.153 19.799L16.722 34.065H20.61L23.043 19.799H19.153Z" fill="black"/>
<path d="M13.462 19.815L9.654 29.544L9.248 28.075C8.497 26.305 6.365 23.763 3.862 22.161L7.344 34.058L11.458 34.051L17.581 19.812L13.462 19.815Z" fill="black"/>
<path d="M7.772 20.836C7.546 19.967 6.891 19.708 6.078 19.677H0.05L0 19.961C4.691 21.099 7.795 23.841 9.083 27.138L7.772 20.836Z" fill="black"/>
<path d="M30.923 22.534C32.195 22.514 33.117 22.792 33.833 23.08L34.184 23.245L34.71 20.153C33.94 19.864 32.733 19.554 31.227 19.554C27.385 19.554 24.677 21.489 24.656 24.262C24.631 26.311 26.585 27.455 28.061 28.138C29.576 28.838 30.084 29.283 30.077 29.908C30.065 30.863 28.869 31.301 27.752 31.301C26.195 31.301 25.368 31.086 24.091 30.554L23.59 30.326L23.043 33.519C23.953 33.918 25.632 34.261 27.375 34.279C31.462 34.279 34.118 32.367 34.146 29.404C34.163 27.783 33.126 26.546 30.879 25.531C29.519 24.869 28.687 24.429 28.695 23.761C28.695 23.168 29.401 22.534 30.923 22.534Z" fill="black"/>
<path d="M44.688 19.8149H41.684C40.751 19.8149 40.057 20.0689 39.647 20.9989L33.874 34.0729H37.957C37.957 34.0729 38.623 32.3149 38.774 31.9299C39.221 31.9299 43.188 31.9359 43.753 31.9359C43.869 32.4339 44.227 34.0729 44.227 34.0729H47.834L44.688 19.8149ZM39.893 29.0099C40.213 28.1909 41.442 25.0229 41.442 25.0229C41.421 25.0619 41.759 24.1979 41.96 23.6609L42.222 24.8909C42.222 24.8909 42.967 28.2969 43.123 29.0099H39.893Z" fill="black"/>
</g>
<defs>
<clipPath id="clip0">
<rect width="47.834" height="47.834" fill="white" transform="translate(0 3)"/>
</clipPath>
</defs>
</svg>
