<svg width="27" height="25" viewBox="0 0 27 25" fill="none" xmlns="http://www.w3.org/2000/svg">
<path d="M7.7338 18.793C6.56493 18.7319 6.58694 17.0507 7.73375 16.9923C10.9823 17.0038 19.5505 16.9954 22.9024 16.9978C23.8192 16.9978 24.6035 16.3598 24.8097 15.4464L26.713 7.01832C26.822 6.53576 26.712 6.03629 26.4112 5.64809C26.1105 5.25989 25.6603 5.03411 25.176 5.03411C23.8276 5.03411 12.3818 4.98113 6.51929 4.95723L5.58998 1.43112C5.36689 0.588478 4.61492 0 3.76126 0H0.784228C0.351125 0 0 0.359064 0 0.80196C0 1.24486 0.351125 1.60392 0.784228 1.60392H3.76126C3.90823 1.60392 4.03763 1.70523 4.07584 1.84943L7.64487 15.3906C7.01733 15.4139 6.43282 15.6749 5.98957 16.1348C5.52384 16.6181 5.27373 17.2578 5.28528 17.9363C5.30839 19.293 6.40678 20.3968 7.7338 20.3968H8.87731C8.70734 20.7617 8.61192 21.1695 8.61192 21.5998C8.61192 23.1476 9.84327 24.4068 11.3568 24.4068C12.8704 24.4068 14.1017 23.1476 14.1017 21.5998C14.1017 21.1695 14.0063 20.7617 13.8363 20.3968H18.7882C18.6184 20.7616 18.523 21.1692 18.523 21.5994C18.523 23.1472 19.7544 24.4064 21.2679 24.4064C22.7815 24.4064 24.0129 23.1471 24.0129 21.5994C24.0129 21.1525 23.9097 20.7299 23.7272 20.3545C24.0375 20.2476 24.2613 19.9483 24.2613 19.5949C24.2613 19.152 23.9102 18.793 23.4771 18.793H7.7338ZM12.5332 21.5999C12.5332 22.2632 12.0055 22.8029 11.3568 22.8029C10.7081 22.8029 10.1803 22.2632 10.1803 21.5999C10.1803 20.9369 10.7075 20.3974 11.3558 20.3969H11.3578C12.006 20.3974 12.5332 20.9369 12.5332 21.5999ZM21.268 22.8025C20.6193 22.8025 20.0915 22.2628 20.0915 21.5994C20.0915 20.9426 20.609 20.4074 21.2489 20.3969H21.2871C21.927 20.4074 22.4445 20.9426 22.4445 21.5994C22.4445 22.2628 21.9167 22.8025 21.268 22.8025ZM25.1818 6.64391C25.1864 6.6499 25.1858 6.65273 25.1848 6.65733L24.3828 10.2087H21.6672L22.1296 6.62536L25.1698 6.63787C25.1744 6.63798 25.1772 6.63798 25.1818 6.64391ZM17.0966 15.3938V11.8126H19.8781L19.416 15.3938H17.0966ZM13.2078 15.3938L12.7419 11.8126H15.5282V15.3938H13.2078ZM9.59759 15.3938H9.59514C9.40399 15.3938 9.23559 15.2619 9.18587 15.0741L8.32626 11.8126H11.1596L11.6255 15.3938H9.59759ZM12.5332 10.2087L12.0615 6.58393L15.5281 6.5982V10.2087H12.5332ZM17.0966 10.2087V6.60467L20.5484 6.61889L20.0851 10.2087H17.0966ZM10.4784 6.57735L10.9509 10.2087H7.9035L6.94256 6.56275L10.4784 6.57735ZM22.9024 15.3938H20.998L21.4601 11.8126H24.0205L23.2814 15.0855C23.2404 15.2671 23.0846 15.3938 22.9024 15.3938Z" fill="black"/>
</svg>
