<svg width="76" height="26" viewBox="0 0 76 26" fill="#fff" xmlns="http://www.w3.org/2000/svg">
<path  d="M10.096 22.58C10.096 23.828 9.832 24.716 9.304 25.244C8.8 25.748 7.924 26 6.676 26H2.284C1.588 26 1.084 25.832 0.772 25.496C0.484 25.136 0.268 24.608 0.124 23.912H5.524C6.268 23.912 6.736 23.756 6.928 23.444C7.12 23.132 7.216 22.604 7.216 21.86V16.028C7.216 15.284 7.108 14.756 6.892 14.444C6.7 14.132 6.196 13.976 5.38 13.976H3.544C2.296 13.976 1.408 13.724 0.88 13.22C0.376 12.692 0.124 11.804 0.124 10.556V4.22C0.124 2.972 0.376 2.096 0.88 1.592C1.408 1.064 2.296 0.799998 3.544 0.799998H7.828C8.524 0.799998 9.016 0.979998 9.304 1.34C9.616 1.676 9.844 2.192 9.988 2.888H4.696C3.952 2.888 3.484 3.044 3.292 3.356C3.1 3.668 3.004 4.196 3.004 4.94V9.836C3.004 10.58 3.1 11.108 3.292 11.42C3.484 11.732 3.952 11.888 4.696 11.888H6.676C7.924 11.888 8.8 12.152 9.304 12.68C9.832 13.184 10.096 14.06 10.096 15.308V22.58ZM14.5414 11.132C14.5414 9.884 14.7934 9.008 15.2974 8.504C15.8254 7.976 16.7134 7.712 17.9614 7.712H23.0014C24.2494 7.712 25.1254 7.976 25.6294 8.504C26.1574 9.008 26.4214 9.884 26.4214 11.132V22.58C26.4214 23.828 26.1574 24.716 25.6294 25.244C25.1254 25.748 24.2494 26 23.0014 26H17.9614C16.7134 26 15.8254 25.748 15.2974 25.244C14.7934 24.716 14.5414 23.828 14.5414 22.58V11.132ZM19.1134 9.8C18.3694 9.8 17.9014 9.956 17.7094 10.268C17.5174 10.58 17.4214 11.108 17.4214 11.852V21.86C17.4214 22.604 17.5174 23.132 17.7094 23.444C17.9014 23.756 18.3694 23.912 19.1134 23.912H21.8494C22.5934 23.912 23.0614 23.756 23.2534 23.444C23.4454 23.132 23.5414 22.604 23.5414 21.86V11.852C23.5414 11.108 23.4454 10.58 23.2534 10.268C23.0614 9.956 22.5934 9.8 21.8494 9.8H19.1134ZM39.4914 7.712C40.7394 7.712 41.6154 7.976 42.1194 8.504C42.6474 9.008 42.9114 9.884 42.9114 11.132V25.028C42.9114 25.412 42.8394 25.676 42.6954 25.82C42.5754 25.94 42.3234 26 41.9394 26H40.0314V11.852C40.0314 11.108 39.9354 10.58 39.7434 10.268C39.5514 9.956 39.0834 9.8 38.3394 9.8H33.9114V25.028C33.9114 25.412 33.8394 25.676 33.6954 25.82C33.5754 25.94 33.3234 26 32.9394 26H31.0314V8.684C31.0314 8.3 31.0914 8.048 31.2114 7.928C31.3554 7.784 31.6194 7.712 32.0034 7.712H33.9114V9.8C34.0554 9.104 34.2714 8.588 34.5594 8.252C34.8714 7.892 35.3754 7.712 36.0714 7.712H39.4914ZM56.5188 26V8.684C56.5188 8.3 56.5788 8.048 56.6988 7.928C56.8428 7.784 57.1068 7.712 57.4908 7.712H59.3988V25.028C59.3988 25.412 59.3268 25.676 59.1828 25.82C59.0628 25.94 58.8108 26 58.4268 26H56.5188ZM47.5188 8.684C47.5188 8.3 47.5788 8.048 47.6988 7.928C47.8428 7.784 48.1068 7.712 48.4908 7.712H50.3988V21.86C50.3988 22.604 50.4948 23.132 50.6868 23.444C50.8788 23.756 51.3468 23.912 52.0908 23.912H55.0788V25.028C55.0788 25.412 55.0188 25.676 54.8988 25.82C54.8028 25.94 54.5628 26 54.1788 26H50.9388C49.6908 26 48.8028 25.748 48.2748 25.244C47.7708 24.716 47.5188 23.828 47.5188 22.58V8.684ZM72.5383 7.712C73.7863 7.712 74.6623 7.976 75.1663 8.504C75.6943 9.008 75.9583 9.884 75.9583 11.132V25.028C75.9583 25.412 75.8863 25.676 75.7423 25.82C75.6223 25.94 75.3703 26 74.9863 26H73.0783V11.852C73.0783 11.108 72.9823 10.58 72.7903 10.268C72.5983 9.956 72.1303 9.8 71.3863 9.8H66.9583V25.028C66.9583 25.412 66.8863 25.676 66.7423 25.82C66.6223 25.94 66.3703 26 65.9863 26H64.0783V8.684C64.0783 8.3 64.1383 8.048 64.2583 7.928C64.4023 7.784 64.6663 7.712 65.0503 7.712H66.9583V9.8C67.1023 9.104 67.3183 8.588 67.6063 8.252C67.9183 7.892 68.4223 7.712 69.1183 7.712H72.5383Z" fill="#fff"/>
</svg>
