<svg width="29" height="28" viewBox="0 0 29 28" fill="none" xmlns="http://www.w3.org/2000/svg">
<path d="M8.1626 21.6829C6.92892 21.6124 6.95215 19.6727 8.16254 19.6053C11.5912 19.6186 20.6345 19.6089 24.1722 19.6117C25.1398 19.6117 25.9676 18.8756 26.1853 17.8217L28.1941 8.09758C28.3091 7.54081 28.193 6.96454 27.8756 6.51664C27.5582 6.06874 27.083 5.80825 26.5719 5.80825C25.1487 5.80825 13.0683 5.74712 6.88075 5.71954L5.89991 1.6512C5.66446 0.678973 4.8708 0 3.96981 0H0.82771C0.370593 0 0 0.41428 0 0.925283C0 1.43629 0.370593 1.85057 0.82771 1.85057H3.96981C4.12492 1.85057 4.26149 1.96746 4.30183 2.13383L8.06873 17.7573C7.4064 17.7842 6.78948 18.0853 6.32166 18.6159C5.83011 19.1736 5.56613 19.9117 5.57832 20.6944C5.60271 22.2598 6.762 23.5334 8.1626 23.5334H9.36951C9.19011 23.9543 9.08941 24.4249 9.08941 24.9214C9.08941 26.7072 10.389 28.16 11.9865 28.16C13.584 28.16 14.8836 26.7072 14.8836 24.9214C14.8836 24.4249 14.7828 23.9543 14.6034 23.5334H19.8299C19.6507 23.9542 19.55 24.4246 19.55 24.9209C19.55 26.7067 20.8497 28.1595 22.4471 28.1595C24.0446 28.1595 25.3442 26.7066 25.3442 24.9209C25.3442 24.4053 25.2353 23.9177 25.0427 23.4845C25.3703 23.3612 25.6065 23.0159 25.6065 22.6082C25.6065 22.0972 25.2359 21.6829 24.7788 21.6829H8.1626ZM13.2281 24.9214C13.2281 25.6868 12.6711 26.3095 11.9864 26.3095C11.3018 26.3095 10.7448 25.6868 10.7448 24.9214C10.7448 24.1565 11.3012 23.5341 11.9854 23.5335H11.9875C12.6717 23.5341 13.2281 24.1565 13.2281 24.9214ZM22.4472 26.309C21.7625 26.309 21.2055 25.6863 21.2055 24.9209C21.2055 24.1631 21.7517 23.5456 22.427 23.5335H22.4674C23.1428 23.5456 23.6889 24.1631 23.6889 24.9209C23.6889 25.6863 23.1318 26.309 22.4472 26.309ZM26.578 7.6656C26.5829 7.67251 26.5822 7.67578 26.5811 7.68108L25.7347 11.7785H22.8685L23.3566 7.64419L26.5653 7.65863C26.5702 7.65875 26.5731 7.65875 26.578 7.6656ZM18.0446 17.761V13.6291H20.9803L20.4925 17.761H18.0446ZM13.9401 17.761L13.4483 13.6291H16.3891V17.761H13.9401ZM10.1297 17.761H10.1271C9.9254 17.761 9.74766 17.6089 9.69518 17.3922L8.7879 13.6291H11.7783L12.2701 17.761H10.1297ZM13.2281 11.7786L12.7303 7.59639L16.3891 7.61286V11.7786H13.2281ZM18.0446 11.7786V7.62032L21.6877 7.63673L21.1987 11.7786H18.0446ZM11.0594 7.5888L11.558 11.7785H8.34171L7.32749 7.57196L11.0594 7.5888ZM24.1722 17.761H22.1622L22.65 13.6291H25.3524L24.5723 17.4053C24.529 17.6148 24.3645 17.761 24.1722 17.761Z" fill="white"/>
</svg>
