<svg width="25" height="25" viewBox="0 0 25 25" fill="none" xmlns="http://www.w3.org/2000/svg">
<g clip-path="url(#clip0)">
<path d="M24.0211 6.2297L13.2596 1.03451C13.1642 0.988496 13.0531 0.988496 12.9577 1.03451L2.19623 6.2297C2.07624 6.28761 2 6.40913 2 6.54236V19.1592C2 19.2925 2.07624 19.414 2.19623 19.4719L12.9577 24.6671C13.0054 24.6901 13.057 24.7016 13.1086 24.7016C13.1603 24.7016 13.2119 24.6901 13.2596 24.6671L24.0211 19.4719C24.141 19.414 24.2173 19.2925 24.2173 19.1592V6.5424C24.2173 6.40908 24.141 6.28766 24.0211 6.2297ZM13.1086 1.73274L23.0715 6.54236L20.1835 7.93658C20.1652 7.92265 20.1459 7.90978 20.1247 7.89955L10.2295 3.12266L13.1086 1.73274ZM9.4454 3.51522L19.3938 8.31785L17.3562 9.30151L7.41197 4.50082L9.4454 3.51522ZM19.6265 8.97649V12.6126L17.7233 13.5314V9.8953L19.6265 8.97649ZM23.5229 18.9414L13.4558 23.8012V11.9554L15.8571 10.7962C16.0298 10.7128 16.1022 10.5053 16.0188 10.3326C15.9355 10.16 15.7279 10.0875 15.5552 10.1709L13.1086 11.352L12.146 10.8872C11.9732 10.8038 11.7657 10.8763 11.6823 11.0489C11.599 11.2216 11.6714 11.4292 11.844 11.5126L12.7615 11.9554V23.8012L2.69438 18.9413V7.0955L10.3604 10.7963C10.409 10.8198 10.4605 10.831 10.511 10.831C10.6401 10.831 10.7641 10.7586 10.8239 10.6346C10.9073 10.462 10.8349 10.2544 10.6622 10.171L3.14578 6.54236L6.59478 4.87732L17.0241 9.9122C17.0257 9.91432 17.0274 9.91622 17.0289 9.91831V14.0846C17.0289 14.204 17.0904 14.3151 17.1916 14.3786C17.2478 14.4139 17.3119 14.4317 17.3762 14.4317C17.4277 14.4317 17.4793 14.4203 17.5271 14.3972L20.1247 13.1432C20.2447 13.0853 20.3209 12.9638 20.3209 12.8305V8.64134L23.5229 7.09555V18.9414Z" fill="#8855DD" stroke="#8855DD"/>
<path d="M6.45629 17.3099L4.19563 16.2186C3.94832 16.0991 3.65132 16.2028 3.53197 16.45C3.41263 16.6972 3.51627 16.9943 3.76344 17.1137L6.02411 18.205C6.09375 18.2387 6.16737 18.2546 6.2398 18.2546C6.42455 18.2546 6.60201 18.1511 6.6877 17.9735C6.80711 17.7263 6.70347 17.4293 6.45629 17.3099Z" fill="#8855DD"/>
<path d="M8.4493 16.3801L4.18535 14.3217C3.94233 14.2043 3.65034 14.3062 3.53304 14.5492C3.4158 14.7922 3.51767 15.0842 3.76061 15.2015L8.02457 17.26C8.09302 17.293 8.16538 17.3087 8.23658 17.3087C8.41817 17.3087 8.59259 17.207 8.67681 17.0325C8.79412 16.7894 8.69225 16.4974 8.4493 16.3801Z" fill="#8855DD"/>
</g>
<defs>
<clipPath id="clip0">
<rect width="25" height="25" fill="white"/>
</clipPath>
</defs>
</svg>
