<svg width="19" height="25" viewBox="0 0 19 25" fill="none" xmlns="http://www.w3.org/2000/svg">
<path d="M9.50011 19.3184C5.73306 19.3184 2.68193 16.2672 2.68193 12.5002C2.68193 11.3468 2.9717 10.2672 3.47172 9.31268L1.81261 7.65356C0.931889 9.06264 0.40918 10.7161 0.40918 12.5002C0.40918 17.5229 4.47735 21.5911 9.50011 21.5911V25.0002L14.0456 20.4547L9.50011 15.9093V19.3184Z" fill="#8855DD"/>
<path d="M9.50003 3.40909V0L4.95459 4.54544L9.50003 9.09088V5.68179C13.2671 5.68179 16.3182 8.73293 16.3182 12.5C16.3182 13.6534 16.0284 14.7329 15.5284 15.6875L17.1875 17.3466C18.0682 15.9375 18.591 14.2841 18.591 12.5C18.5909 7.47726 14.5227 3.40909 9.50003 3.40909Z" fill="#8855DD"/>
</svg>
